<svg width="1280" height="1080" viewBox="0 0 1280 1080" fill="none" xmlns="http://www.w3.org/2000/svg">
<path d="M0 50C0 22.3858 22.3858 0 50 0H1180C1207.61 0 1230 22.3858 1230 50V1080H0V50Z" fill="#BC9F84"/>
<path d="M0 50C0 22.3858 22.3858 0 50 0H1180C1207.61 0 1230 22.3858 1230 50V1080H0V50Z" fill="black" fill-opacity="0.2"/>
<path d="M930 686C930 658.386 952.386 636 980 636H1230V876H980C952.386 876 930 853.614 930 826V686Z" fill="#644E3A"/>
<path d="M1230 636H1280V876H1230V636Z" fill="#5F462F"/>
</svg>
